<svg width="33" height="32" viewBox="0 0 33 32" fill="none" xmlns="http://www.w3.org/2000/svg">
<path d="M31.072 15.9999C31.072 24.048 24.5477 30.5724 16.4995 30.5724C8.4514 30.5724 1.92708 24.048 1.92708 15.9999C1.92708 7.95175 8.4514 1.42744 16.4995 1.42744C24.5477 1.42744 31.072 7.95175 31.072 15.9999Z" fill="#F9F9F9" stroke="white"/>
<path fill-rule="evenodd" clip-rule="evenodd" d="M12.4951 10.0264C12.83 9.41765 13.1944 9.01069 13.7351 8.79548C14.7259 8.40149 18.2746 8.40149 19.2647 8.79556C19.8051 9.01065 20.1696 9.41754 20.5048 10.0262L20.8817 10.7488C20.8903 10.7631 20.8982 10.7757 20.9053 10.7866L20.9373 10.8303C21.109 11.0174 21.3964 11.1304 21.586 11.1304C23.3794 11.1304 24.8335 12.5842 24.8335 14.3771V19.2063C24.8335 21.4931 22.9787 23.3479 20.6919 23.3479H12.3085C10.0211 23.3479 8.16687 21.4934 8.16687 19.2063V14.3771C8.16687 12.5842 9.62102 11.1304 11.4144 11.1304C11.6033 11.1304 11.8911 11.0172 12.0631 10.8303C12.0665 10.8266 12.071 10.821 12.0764 10.8136L12.1193 10.7479L12.4951 10.0264ZM19.4099 10.6292C19.2016 10.251 19.0134 10.0409 18.8024 9.95694L18.703 9.92389C17.8453 9.68148 14.8622 9.6925 14.1972 9.95694C13.9863 10.0409 13.7983 10.2509 13.5902 10.629L13.2695 11.2491L13.1906 11.3919C13.1247 11.5015 13.0588 11.5941 12.9835 11.6761C12.5614 12.1348 11.9371 12.3804 11.4144 12.3804L11.2776 12.385C10.2383 12.4553 9.41687 13.3206 9.41687 14.3771V19.2063C9.41687 20.803 10.7115 22.0979 12.3085 22.0979H20.6919C22.2884 22.0979 23.5835 20.8027 23.5835 19.2063V14.3771C23.5835 13.2747 22.6891 12.3804 21.586 12.3804L21.4409 12.3744C20.9505 12.334 20.3996 12.0931 20.0164 11.6755C19.9421 11.5946 19.8766 11.5027 19.8111 11.3941C19.8017 11.3785 19.79 11.3579 19.7766 11.3337L19.6798 11.1522L19.4099 10.6292Z" fill="#1B5E37"/>
<path d="M21.0872 13.084C21.5474 13.084 21.9205 13.4571 21.9205 13.9173C21.9205 14.3447 21.5988 14.6969 21.1844 14.745L21.0872 14.7507C20.6194 14.7507 20.2463 14.3776 20.2463 13.9173C20.2463 13.49 20.568 13.1377 20.9825 13.0896L21.0872 13.084Z" fill="#1B5E37"/>
<path fill-rule="evenodd" clip-rule="evenodd" d="M13.2258 16.9402C13.2258 15.1317 14.6915 13.666 16.5 13.666C18.3085 13.666 19.7742 15.1317 19.7742 16.9402C19.7742 18.7487 18.3085 20.2143 16.5 20.2143C14.6915 20.2143 13.2258 18.7487 13.2258 16.9402ZM18.5242 16.9402C18.5242 15.822 17.6182 14.916 16.5 14.916C15.3818 14.916 14.4758 15.822 14.4758 16.9402C14.4758 18.0583 15.3818 18.9643 16.5 18.9643C17.6182 18.9643 18.5242 18.0583 18.5242 16.9402Z" fill="#1B5E37"/>
</svg>
